<svg id="그룹_8838" data-name="그룹 8838" xmlns="http://www.w3.org/2000/svg" width="120" height="16" viewBox="0 0 120 16">
  <ellipse id="타원_245" data-name="타원 245" cx="1.455" cy="1.458" rx="1.455" ry="1.458" transform="translate(92.613 12.811)" fill="#fff"/>
  <path id="패스_1761" data-name="패스 1761" d="M456.5-291.206l.023,3.693h8.766v2.382h-8.779l-.011,4.184h8.811v2.377h-12.09V-293.6H465.31l-.028,2.411Z" transform="translate(-377.442 294.208)" fill="#fff"/>
  <path id="패스_1762" data-name="패스 1762" d="M592.153-293.807h3.209v15.069h-3.208Z" transform="translate(-491.862 294.374)" fill="#fff"/>
  <g id="그룹_8836" data-name="그룹 8836" transform="translate(107.938 0.6)">
    <path id="패스_1763" data-name="패스 1763" d="M648.158-293.612H636.1v2.468h4.375v12.571h3.207v-12.568h4.48Z" transform="translate(-636.1 293.612)" fill="#fff"/>
  </g>
  <path id="패스_1764" data-name="패스 1764" d="M365.954-278.558l-4.295-6.294a4.747,4.747,0,0,0,2.808-4.091c0-2.566-2.428-4.647-5.424-4.647h-5.719v0h-.813l-.152-.005v15.029h3.284V-284.2h3.126l3.848,5.639Zm-10.31-12.672h2.771a2.558,2.558,0,0,1,2.728,2.337,2.558,2.558,0,0,1-2.728,2.337h-2.771Z" transform="translate(-294.309 294.194)" fill="#fff"/>
  <g id="그룹_8837" data-name="그룹 8837" transform="translate(0)">
    <path id="패스_1765" data-name="패스 1765" d="M136.026-293.8v5.8h-7.719v-5.8h-3.24v15.069h3.24v-6.627h7.719v6.627h3.24V-293.8Z" transform="translate(-107.193 294.368)" fill="#fff"/>
    <path id="패스_1766" data-name="패스 1766" d="M34.421-288.549a4.611,4.611,0,0,0-1.6-.961,14.684,14.684,0,0,0-1.97-.712l-2.082-.609c-1.514-.445-2.271-1.35-2.271-2.077a1.5,1.5,0,0,1,.813-1.279,3.754,3.754,0,0,1,1.749-.412c1.411,0,2.58.692,2.787,1.595l3.1.016v-.033a3.73,3.73,0,0,0-2.818-3.513,9,9,0,0,0-3.105-.517,8.611,8.611,0,0,0-3.5.681,3.673,3.673,0,0,0-2.349,3.349v.033a3.606,3.606,0,0,0,1.816,3.078,8.74,8.74,0,0,0,2.494,1.162l2.114.53a10.575,10.575,0,0,1,1.352.508,4.67,4.67,0,0,1,.7.4,2,2,0,0,1,.822,1.616,2.02,2.02,0,0,1-.694,1.507,4.041,4.041,0,0,1-2.709.831,5.013,5.013,0,0,1-2.08-.411,2.116,2.116,0,0,1-1.366-1.924l-3.326.052a4.148,4.148,0,0,0,2.678,3.779,9.83,9.83,0,0,0,4.078.806,7.916,7.916,0,0,0,5.311-1.628,3.994,3.994,0,0,0,1.34-2.577,4.12,4.12,0,0,0,.041-.563,3.359,3.359,0,0,0-1.175-2.6C34.521-288.467,34.469-288.506,34.421-288.549Z" transform="translate(-22.297 297.052)" fill="#fff"/>
  </g>
  <path id="패스_1767" data-name="패스 1767" d="M231.512-279.309h3.476l5-9.421,4.734,9.421h3.532L240.534-294.5h-1.047Z" transform="translate(-194.705 294.947)" fill="#0077ed"/>
</svg>
